<svg width="154" height="70" viewBox="0 0 154 70" fill="none" xmlns="http://www.w3.org/2000/svg">
<path d="M58.5938 19.888C57.1137 15.5602 54.6429 11.6835 51.4489 8.52262C46.5966 3.71907 40.0713 0.568271 32.8125 0C34.937 1.36501 37.1637 3.05681 38.3443 4.7515C30.1518 -0.0347033 21.4831 1.2956 21.2844 1.32741C21.2815 1.32741 21.28 1.32741 21.28 1.32741C23.8106 1.66143 26.2682 2.38442 28.6206 3.48771C30.39 4.3177 32.0513 5.34001 33.5942 6.54307C33.5986 6.54741 33.603 6.5503 33.6074 6.55464C34.5892 7.34993 35.5185 8.20739 36.3908 9.11981C38.2186 11.0328 39.7893 13.1874 41.0488 15.5313C41.135 15.6918 41.2212 15.8537 41.3045 16.0171C41.3059 16.02 41.3074 16.0229 41.3089 16.0258C41.3322 16.0735 41.3571 16.1213 41.3804 16.169C43.3836 20.1266 44.5101 24.5933 44.5101 29.3202C44.5101 34.0471 43.3778 38.534 41.3688 42.4974C41.3556 42.522 41.3439 42.5466 41.3308 42.5712C41.322 42.5885 41.3118 42.6073 41.3045 42.6247C41.2928 42.6478 41.2811 42.6709 41.2679 42.6941C41.1964 42.8343 41.1218 42.9746 41.0473 43.1134C40.4614 44.2051 39.8083 45.252 39.0924 46.2555C38.2712 47.408 37.3683 48.4997 36.3922 49.522C35.6544 50.2956 34.8741 51.0287 34.0559 51.7184C33.9259 51.8283 33.7944 51.9368 33.6629 52.0452C33.6527 52.0525 33.6424 52.0611 33.6322 52.0684C33.508 52.1696 33.3794 52.2708 33.2538 52.3691C33.2538 52.3691 33.2528 52.3701 33.2508 52.372C33.2377 52.3836 33.2231 52.3923 33.2099 52.4038C33.1953 52.414 33.1793 52.4255 33.1646 52.4356C32.2719 53.1037 31.3383 53.7081 30.3681 54.2533C30.2731 54.3068 30.1781 54.3603 30.0817 54.4123C29.9093 54.5063 29.7369 54.5988 29.563 54.6899C28.0522 55.5416 27.028 55.9306 25.4558 56.5205C25.263 56.5928 25.0613 56.6695 24.848 56.749C24.3775 56.9269 23.8559 57.1264 23.2656 57.3607C23.0173 57.4575 22.7572 57.5617 22.4825 57.673C22.1187 57.819 21.73 57.9781 21.3151 58.1531C20.7335 58.4264 19.8554 58.9064 20.2981 59.8015C19.2549 60.7385 17.7821 61.4904 19.6991 62.7094C20.2265 61.9705 21.166 61.5757 22.3524 61.4239C24.55 61.1419 27.6007 61.6914 30.4791 62.4173C32.5422 62.9378 34.5191 63.548 36.027 64.0093C36.5909 64.1828 40.9728 65.3468 41.3848 65.464C39.0982 65.464 36.6918 65.4596 34.8157 65.4582L41.2957 70H60.1323L41.2168 56.7389C44.1609 55.6052 46.8771 54.019 49.2807 52.0684C49.3508 52.0105 49.4209 51.9527 49.4911 51.8949C49.5612 51.837 49.6313 51.7777 49.7015 51.7199C49.8417 51.6042 49.9791 51.4856 50.115 51.3656C50.1836 51.3049 50.2523 51.2442 50.3195 51.1849C50.3867 51.1241 50.4554 51.0649 50.5226 51.0027C50.657 50.8798 50.7914 50.7569 50.9229 50.6325C50.9843 50.5747 51.0457 50.5168 51.107 50.459C51.1129 50.4532 51.1187 50.4474 51.1246 50.4416C51.3847 50.1915 51.6418 49.9355 51.8931 49.6767C51.9559 49.6116 52.0188 49.5466 52.0816 49.4801C52.2686 49.282 52.4542 49.0824 52.6368 48.88C52.6865 48.8236 52.7362 48.7672 52.7873 48.7122C52.8633 48.6269 52.9407 48.5387 53.0153 48.4505C53.1292 48.3204 53.2403 48.1888 53.3513 48.0572C53.474 47.9112 53.5938 47.7651 53.7122 47.6162C53.8773 47.4109 54.041 47.2026 54.2002 46.9915C54.2543 46.9192 54.3098 46.8455 54.3639 46.7732C54.4179 46.6994 54.4734 46.6271 54.526 46.5534C54.6327 46.4059 54.7394 46.2584 54.8446 46.1095C54.8972 46.0357 54.9483 45.9605 55.0009 45.8853C55.1046 45.735 55.2054 45.586 55.3063 45.4342C55.3574 45.3576 55.4071 45.2824 55.4553 45.2057C55.505 45.1291 55.5547 45.0525 55.6029 44.9758C55.6525 44.8992 55.6993 44.8211 55.7475 44.7445C55.7972 44.6664 55.844 44.5897 55.8922 44.5117C55.9871 44.3555 56.0807 44.1993 56.1727 44.0432C56.218 43.9651 56.2648 43.8856 56.3101 43.806C56.3553 43.7265 56.4006 43.647 56.4445 43.5674C56.5789 43.3289 56.7089 43.0888 56.836 42.8444C56.8726 42.7736 56.9106 42.7013 56.9471 42.6304C56.9602 42.6044 56.9734 42.5798 56.9865 42.5538C57.0201 42.4873 57.0538 42.4222 57.0859 42.3557C57.1677 42.1923 57.2481 42.0275 57.327 41.8612C57.3664 41.7788 57.4059 41.6963 57.4439 41.6125C57.5593 41.3623 57.6718 41.1122 57.7814 40.8591C57.8179 40.7753 57.853 40.6899 57.8895 40.6061C58.0312 40.2663 58.1686 39.925 58.2986 39.5794C58.3308 39.4941 58.3629 39.4074 58.3951 39.3191C58.4915 39.0589 58.5821 38.7971 58.6697 38.534C58.699 38.4458 58.7282 38.359 58.7559 38.2708C58.8129 38.0944 58.8684 37.9165 58.9225 37.7401C58.924 37.7344 58.9269 37.7286 58.9284 37.7228C58.9795 37.5507 59.0306 37.3786 59.0774 37.2037C59.1271 37.0273 59.1738 36.8494 59.222 36.673C59.2469 36.5776 59.2717 36.4821 59.2951 36.3853C59.3389 36.2103 59.3798 36.0353 59.4207 35.8589C59.4237 35.8488 59.4266 35.8387 59.4281 35.8285C59.4865 35.5712 59.542 35.3123 59.5932 35.0535C59.5975 35.0347 59.6019 35.0159 59.6048 34.9971C59.6764 34.6356 59.7407 34.2727 59.7977 33.9083C59.8123 33.8143 59.8269 33.7203 59.8415 33.6278C59.8825 33.3458 59.9204 33.0638 59.9541 32.7804C59.9657 32.685 59.976 32.591 59.9862 32.4956C59.9964 32.4001 60.0067 32.3047 60.0154 32.2107C60.0344 32.0198 60.0505 31.8304 60.0666 31.6395C60.0739 31.5441 60.0797 31.4487 60.0885 31.3518C60.1148 30.9672 60.1338 30.5825 60.1455 30.195C60.1484 30.1126 60.1498 30.0302 60.1513 29.9463C60.1513 29.9203 60.1528 29.8942 60.1528 29.8682C60.1557 29.686 60.1571 29.5038 60.1571 29.3216C60.1571 26.0219 59.6078 22.8494 58.5952 19.8866L58.5938 19.888ZM22.7119 58.8023C22.5891 58.892 22.4927 59.0062 22.4445 59.1522C22.389 59.3171 22.3422 59.4848 22.2794 59.6468C22.218 59.8044 22.1099 59.9273 21.9463 59.9909C21.7724 60.0589 21.5941 60.069 21.413 60.0502C21.2785 60.0372 21.1543 59.9996 21.0214 59.9157C21.0944 59.8897 21.1485 59.8694 21.2011 59.8478C21.5167 59.7089 21.7373 59.4588 21.9565 59.2086C22.1713 58.9614 22.4138 58.7633 22.7426 58.6866C22.7849 58.6765 22.8317 58.6736 22.8755 58.6678C22.8229 58.7228 22.7659 58.7604 22.7104 58.8023H22.7119Z" fill="#F9C22E"/>
<path d="M40.5959 40.4469C39.4607 43.0641 38.8397 44.4971 37.2544 46.2554C35.8868 47.7737 34.2664 49.1401 32.5818 50.2998C29.1803 52.6437 25.1462 54.1316 20.9601 53.9451C20.2252 53.9119 19.4932 53.8294 18.7699 53.7007C5.53082 51.3337 -2.58417 36.3808 0.748612 23.8398C2.63928 16.7226 8.86068 10.5671 16.5154 10.142C17.6609 10.0784 18.8444 10.1362 20.0571 10.3271C18.485 10.8997 16.3079 12.1114 15.161 14.5855C18.0993 11.6776 22.7602 11.9336 24.9635 12.2603C17.9795 14.117 12.7838 21.1705 12.7838 29.5861C12.7838 39.4173 19.8789 47.389 28.6295 47.389C33.7886 47.389 37.7 44.7357 40.5959 40.4483V40.4469Z" fill="#F9C22E"/>
<path d="M76.4143 22.9802L75.1811 21.339C74.8159 21.4113 74.4594 21.4475 74.1116 21.4475C73.2072 21.4475 72.3773 21.2392 71.6234 20.8228C70.8694 20.4064 70.2704 19.8251 69.8276 19.0804C69.3849 18.3343 69.1628 17.4956 69.1628 16.5644C69.1628 15.6332 69.3849 14.7959 69.8276 14.0542C70.2704 13.3124 70.8694 12.734 71.6234 12.3175C72.3773 11.9011 73.2072 11.6929 74.1116 11.6929C75.016 11.6929 75.846 11.9011 76.5999 12.3175C77.3538 12.734 77.947 13.3124 78.3824 14.0542C78.8164 14.7959 79.0341 15.6317 79.0341 16.5644C79.0341 17.3785 78.8675 18.1217 78.5344 18.7955C78.2013 19.4694 77.7366 20.0275 77.1434 20.4714L79.2547 22.9802H76.4172H76.4143ZM72.2531 18.5786C72.7148 19.0804 73.3343 19.332 74.1102 19.332C74.886 19.332 75.4924 19.0789 75.9541 18.5729C76.4158 18.0668 76.6466 17.3973 76.6466 16.5658C76.6466 15.7344 76.4158 15.0533 75.9541 14.5516C75.4924 14.0498 74.8772 13.7982 74.1102 13.7982C73.3431 13.7982 72.7148 14.0469 72.2531 14.5443C71.7914 15.0418 71.5605 15.7156 71.5605 16.5658C71.5605 17.4161 71.7914 18.0783 72.2531 18.5801V18.5786Z" fill="#F9C22E"/>
<path d="M86.143 19.6712H82.5516L81.9759 21.3528H79.5227L83.0045 11.8296H85.7178L89.1996 21.3528H86.7187L86.143 19.6712ZM85.541 17.881L84.3487 14.3948L83.1696 17.881H85.541Z" fill="#F9C22E"/>
<path d="M92.9451 19.4543H97.0844V21.3528H90.2859V19.5887L94.3974 13.7282H90.2859V11.8296H97.0844V13.5937L92.9451 19.4543Z" fill="#F9C22E"/>
<path d="M104.791 19.6712H101.2L100.624 21.3528H98.1711L101.653 11.8296H104.366L107.848 21.3528H105.367L104.791 19.6712ZM104.189 17.881L102.997 14.3948L101.818 17.881H104.189Z" fill="#F9C22E"/>
<path d="M115.448 22.9802L114.214 21.339C113.849 21.4113 113.493 21.4475 113.145 21.4475C112.24 21.4475 111.41 21.2392 110.657 20.8228C109.903 20.4064 109.304 19.8251 108.861 19.0804C108.418 18.3343 108.196 17.4956 108.196 16.5644C108.196 15.6332 108.418 14.7959 108.861 14.0542C109.304 13.3124 109.903 12.734 110.657 12.3175C111.41 11.9011 112.24 11.6929 113.145 11.6929C114.049 11.6929 114.879 11.9011 115.633 12.3175C116.387 12.734 116.98 13.3124 117.416 14.0542C117.85 14.7959 118.067 15.6317 118.067 16.5644C118.067 17.3785 117.901 18.1217 117.568 18.7955C117.234 19.4694 116.77 20.0275 116.177 20.4714L118.288 22.9802H115.45H115.448ZM111.288 18.5786C111.749 19.0804 112.369 19.332 113.145 19.332C113.921 19.332 114.527 19.0789 114.989 18.5729C115.45 18.0668 115.681 17.3973 115.681 16.5658C115.681 15.7344 115.45 15.0533 114.989 14.5516C114.527 14.0498 113.912 13.7982 113.145 13.7982C112.378 13.7982 111.749 14.0469 111.288 14.5443C110.826 15.0418 110.595 15.7156 110.595 16.5658C110.595 17.4161 110.826 18.0783 111.288 18.5801V18.5786Z" fill="#F9C22E"/>
<path d="M121.124 21.1094C120.566 20.8838 120.122 20.5483 119.787 20.1059C119.454 19.6634 119.278 19.1298 119.26 18.5052H121.754C121.791 18.858 121.913 19.1269 122.124 19.312C122.334 19.4971 122.607 19.5896 122.946 19.5896C123.285 19.5896 123.567 19.5101 123.769 19.3525C123.969 19.1949 124.07 18.9751 124.07 18.6946C124.07 18.4589 123.99 18.2651 123.83 18.1119C123.67 17.9586 123.474 17.8313 123.242 17.7316C123.009 17.6318 122.678 17.519 122.248 17.3932C121.627 17.2038 121.12 17.0129 120.727 16.8235C120.334 16.6341 119.996 16.3535 119.713 15.9819C119.43 15.6117 119.288 15.1273 119.288 14.5302C119.288 13.6438 119.612 12.9497 120.261 12.4479C120.91 11.9462 121.754 11.6946 122.796 11.6946C123.838 11.6946 124.71 11.9462 125.359 12.4479C126.007 12.9497 126.355 13.6481 126.4 14.5432H123.865C123.846 14.2352 123.732 13.9937 123.522 13.8173C123.312 13.6409 123.043 13.5527 122.714 13.5527C122.431 13.5527 122.203 13.6279 122.029 13.7768C121.855 13.9257 121.769 14.1412 121.769 14.4217C121.769 14.7297 121.915 14.9683 122.207 15.1404C122.499 15.3124 122.957 15.4975 123.578 15.6971C124.199 15.9053 124.704 16.1034 125.093 16.2943C125.481 16.4837 125.817 16.7599 126.099 17.1214C126.383 17.4828 126.525 17.9485 126.525 18.5182C126.525 19.0879 126.386 19.5535 126.107 19.996C125.828 20.4384 125.423 20.7913 124.894 21.0544C124.364 21.3161 123.738 21.4477 123.017 21.4477C122.295 21.4477 121.683 21.3349 121.124 21.1079V21.1094Z" fill="#F9C22E"/>
<path d="M134.947 11.8296V13.6877H132.397V21.3514H130.054V13.6877H127.504V11.8296H134.947Z" fill="#F9C22E"/>
<path d="M141.172 19.6712H137.581L137.005 21.3528H134.552L138.034 11.8296H140.747L144.229 21.3528H141.748L141.172 19.6712ZM140.57 17.881L139.378 14.3948L138.199 17.881H140.57Z" fill="#F9C22E"/>
<path d="M154.001 21.3528H151.658L147.737 15.4792V21.3528H145.394V11.8296H147.737L151.658 17.7306V11.8296H154.001V21.3528Z" fill="#F9C22E"/>
<path d="M75.8231 24.9184V26.7765H71.9029V28.7835H74.8369V30.5881H71.9029V34.4402H69.5593V24.917H75.8231V24.9184Z" fill="white"/>
<path d="M78.9344 33.9136C78.1804 33.4972 77.5814 32.9159 77.1387 32.1712C76.696 31.4251 76.4739 30.5864 76.4739 29.6552C76.4739 28.724 76.696 27.8868 77.1387 27.145C77.5814 26.4032 78.1804 25.8248 78.9344 25.4084C79.6883 24.9919 80.5182 24.7837 81.4226 24.7837C82.3271 24.7837 83.157 24.9919 83.9109 25.4084C84.6648 25.8248 85.2581 26.4032 85.6935 27.145C86.1274 27.8868 86.3451 28.7225 86.3451 29.6552C86.3451 30.5879 86.126 31.4251 85.6876 32.1712C85.2493 32.9173 84.6546 33.4986 83.9051 33.9136C83.1555 34.3301 82.3285 34.5383 81.4241 34.5383C80.5197 34.5383 79.6898 34.3301 78.9358 33.9136H78.9344ZM83.2651 31.6608C83.7268 31.1547 83.9577 30.4852 83.9577 29.6538C83.9577 28.8223 83.7268 28.1413 83.2651 27.6395C82.8034 27.1378 82.1883 26.8862 81.4212 26.8862C80.6541 26.8862 80.0258 27.1349 79.5641 27.6323C79.1024 28.1297 78.8716 28.8035 78.8716 29.6538C78.8716 30.504 79.1024 31.1663 79.5641 31.668C80.0258 32.1698 80.6453 32.4214 81.4212 32.4214C82.197 32.4214 82.8034 32.1683 83.2651 31.6622V31.6608Z" fill="white"/>
<path d="M89.8992 33.9136C89.1453 33.4972 88.5462 32.9159 88.1035 32.1712C87.6608 31.4251 87.4387 30.5864 87.4387 29.6552C87.4387 28.724 87.6608 27.8868 88.1035 27.145C88.5462 26.4032 89.1453 25.8248 89.8992 25.4084C90.6532 24.9919 91.4831 24.7837 92.3875 24.7837C93.2919 24.7837 94.1218 24.9919 94.8758 25.4084C95.6297 25.8248 96.2229 26.4032 96.6583 27.145C97.0923 27.8868 97.31 28.7225 97.31 29.6552C97.31 30.5879 97.0908 31.4251 96.6525 32.1712C96.2141 32.9173 95.6195 33.4986 94.8699 33.9136C94.1204 34.3301 93.2934 34.5383 92.389 34.5383C91.4845 34.5383 90.6546 34.3301 89.9007 33.9136H89.8992ZM94.2299 31.6608C94.6917 31.1547 94.9225 30.4852 94.9225 29.6538C94.9225 28.8223 94.6917 28.1413 94.2299 27.6395C93.7682 27.1378 93.1531 26.8862 92.386 26.8862C91.6189 26.8862 90.9907 27.1349 90.529 27.6323C90.0673 28.1297 89.8364 28.8035 89.8364 29.6538C89.8364 30.504 90.0673 31.1663 90.529 31.668C90.9907 32.1698 91.6102 32.4214 92.386 32.4214C93.1619 32.4214 93.7682 32.1683 94.2299 31.6622V31.6608Z" fill="white"/>
<path d="M105.375 24.9204V26.7785H102.825V34.4422H100.482V26.7785H97.9319V24.9204H105.375Z" fill="white"/>
<path d="M113.759 30.3804C114.097 30.8099 114.266 31.3015 114.266 31.8524C114.266 32.6477 113.986 33.2796 113.423 33.7452C112.861 34.2108 112.078 34.4436 111.072 34.4436H106.59V24.9204H110.92C111.898 24.9204 112.663 25.1416 113.216 25.5856C113.768 26.0295 114.046 26.6296 114.046 27.3901C114.046 27.9512 113.897 28.4168 113.6 28.787C113.303 29.1586 112.907 29.416 112.415 29.5606C112.972 29.6777 113.42 29.9524 113.758 30.3819L113.759 30.3804ZM108.935 28.7725H110.47C110.855 28.7725 111.148 28.6886 111.354 28.5209C111.56 28.3532 111.663 28.1074 111.663 27.782C111.663 27.4567 111.56 27.208 111.354 27.0359C111.148 26.8638 110.855 26.7785 110.47 26.7785H108.935V28.7725ZM111.573 32.3065C111.788 32.1301 111.896 31.8741 111.896 31.5401C111.896 31.2061 111.784 30.9429 111.56 30.7535C111.337 30.5641 111.028 30.4686 110.635 30.4686H108.936V32.5711H110.663C111.056 32.5711 111.36 32.4829 111.575 32.3065H111.573Z" fill="white"/>
<path d="M121.539 32.7586H117.948L117.372 34.4402H114.919L118.401 24.917H121.114L124.596 34.4402H122.115L121.539 32.7586ZM120.936 30.9684L119.744 27.4822L118.565 30.9684H120.936Z" fill="white"/>
<path d="M128.103 32.6501H131.172V34.4402H125.758V24.917H128.101V32.6487L128.103 32.6501Z" fill="white"/>
<path d="M134.71 32.6501H137.779V34.4402H132.365V24.917H134.708V32.6487L134.71 32.6501Z" fill="white"/>
<path d="M71.9044 45.5034H74.9742V47.2935H69.5593V37.7703H71.9029V45.5019L71.9044 45.5034Z" fill="white"/>
<path d="M78.5099 39.6298V41.5558H81.6483V43.346H78.5099V45.4354H82.0604V47.2935H76.1663V37.7703H82.0604V39.6284H78.5099V39.6298Z" fill="white"/>
<path d="M89.7626 45.6118H86.1712L85.5955 47.2935H83.1423L86.6242 37.7703H89.3374L92.8193 47.2935H90.3383L89.7626 45.6118ZM89.1592 43.8203L87.9669 40.334L86.7878 43.8203H89.1592Z" fill="white"/>
<path d="M99.9546 40.7813C99.7807 40.4647 99.5323 40.2232 99.208 40.0554C98.8836 39.8877 98.5022 39.8038 98.0639 39.8038C97.3056 39.8038 96.6978 40.0511 96.2404 40.5427C95.7831 41.0358 95.5552 41.6937 95.5552 42.5165C95.5552 43.3942 95.7948 44.0782 96.274 44.5712C96.7533 45.0643 97.4137 45.3101 98.2553 45.3101C98.831 45.3101 99.3175 45.1655 99.715 44.8763C100.112 44.5871 100.403 44.1707 100.586 43.6285H97.611V41.9193H102.71V44.0767C102.536 44.6551 102.241 45.193 101.826 45.6904C101.41 46.1878 100.882 46.5898 100.242 46.8978C99.6025 47.2058 98.8807 47.3591 98.0771 47.3591C97.1259 47.3591 96.2799 47.1538 95.5347 46.7417C94.7896 46.3296 94.2095 45.7584 93.7946 45.0253C93.3781 44.2922 93.1707 43.4564 93.1707 42.5165C93.1707 41.5766 93.3781 40.7379 93.7946 40.0005C94.211 39.263 94.7881 38.689 95.5289 38.2783C96.2697 37.8677 97.1142 37.6609 98.0639 37.6609C99.2153 37.6609 100.187 37.9371 100.977 38.488C101.768 39.0404 102.291 39.8038 102.547 40.7799H99.956L99.9546 40.7813Z" fill="white"/>
<path d="M106.643 37.7703V43.4674C106.643 44.0371 106.785 44.4753 107.068 44.7833C107.352 45.0913 107.768 45.2445 108.316 45.2445C108.864 45.2445 109.285 45.0913 109.577 44.7833C109.869 44.4753 110.015 44.0371 110.015 43.4674V37.7703H112.359V43.4544C112.359 44.3047 112.176 45.0233 111.811 45.6118C111.446 46.2003 110.955 46.6428 110.337 46.9407C109.72 47.2386 109.032 47.3889 108.274 47.3889C107.515 47.3889 106.836 47.2414 106.238 46.9479C105.639 46.6544 105.167 46.2105 104.82 45.6191C104.472 45.0262 104.3 44.3061 104.3 43.4559V37.7717H106.643V37.7703Z" fill="white"/>
<path d="M116.719 39.6298V41.5558H119.858V43.346H116.719V45.4354H120.27V47.2935H114.376V37.7703H120.27V39.6284H116.719V39.6298Z" fill="white"/>
</svg>
